HIERARCHY
ROOT joint_Root
{
	OFFSET 0.0 0.0 0.0
	CHANNELS 6 Xposition Yposition Zposition Zrotation Xrotation Yrotation 
	JOINT Hips
	{
		OFFSET -0.726466 93.3139 -2.00062
		CHANNELS 6 Xposition Yposition Zposition Zrotation Xrotation Yrotation 
		JOINT Spine
		{
			OFFSET 15.7357 0.0 0.0
			CHANNELS 6 Xposition Yposition Zposition Zrotation Xrotation Yrotation 
			JOINT Chest
			{
				OFFSET 8.98455 -0.406207 0.0
				CHANNELS 6 Xposition Yposition Zposition Zrotation Xrotation Yrotation 
				JOINT Neck
				{
					OFFSET 16.3773 0.0 0.0
					CHANNELS 6 Xposition Yposition Zposition Zrotation Xrotation Yrotation 
					JOINT Head
					{
						OFFSET 6.45672 0.0 0.0
						CHANNELS 6 Xposition Yposition Zposition Zrotation Xrotation Yrotation 
						End Site
						{
							OFFSET 0.0 0.0 0.0
						}
					}
				}
				JOINT Shoulder_L
				{
					OFFSET 12.9942 -0.242716 4.98039
					CHANNELS 6 Xposition Yposition Zposition Zrotation Xrotation Yrotation 
					JOINT UpperArm_L
					{
						OFFSET 5.34809 0.0 0.0
						CHANNELS 6 Xposition Yposition Zposition Zrotation Xrotation Yrotation 
						JOINT LowerArm_L
						{
							OFFSET 24.3286 1.87007e-05 0.0
							CHANNELS 6 Xposition Yposition Zposition Zrotation Xrotation Yrotation 
							JOINT Hand_L
							{
								OFFSET 22.2916 0.0 0.0
								CHANNELS 6 Xposition Yposition Zposition Zrotation Xrotation Yrotation 
								End Site
								{
									OFFSET 0.0 0.0 0.0
								}
							}
						}
					}
				}
				JOINT Shoulder_R
				{
					OFFSET 12.9945 -0.242716 -4.98039
					CHANNELS 6 Xposition Yposition Zposition Zrotation Xrotation Yrotation 
					JOINT UpperArm_R
					{
						OFFSET -5.34813 0.0 0.0
						CHANNELS 6 Xposition Yposition Zposition Zrotation Xrotation Yrotation 
						JOINT LowerArm_R
						{
							OFFSET -24.3289 0.000322201 0.0
							CHANNELS 6 Xposition Yposition Zposition Zrotation Xrotation Yrotation 
							JOINT Hand_R
							{
								OFFSET -22.2915 -0.000108084 0.0
								CHANNELS 6 Xposition Yposition Zposition Zrotation Xrotation Yrotation 
								End Site
								{
									OFFSET 0.0 0.0 0.0
								}
							}
						}
					}
				}
			}
		}
		JOINT UpperLeg_L
		{
			OFFSET -2.19248 -6.46944 0.0
			CHANNELS 6 Xposition Yposition Zposition Zrotation Xrotation Yrotation 
			JOINT LowerLeg_L
			{
				OFFSET 39.0811 0.0 -1.23785e-05
				CHANNELS 6 Xposition Yposition Zposition Zrotation Xrotation Yrotation 
				JOINT Foot_L
				{
					OFFSET 40.9854 0.0 -1.26872e-05
					CHANNELS 6 Xposition Yposition Zposition Zrotation Xrotation Yrotation 
					JOINT Toes_L
					{
						OFFSET 11.7543 0.0 0.0
						CHANNELS 6 Xposition Yposition Zposition Zrotation Xrotation Yrotation 
						End Site
						{
							OFFSET 0.0 0.0 0.0
						}
					}
				}
			}
		}
		JOINT UpperLeg_R
		{
			OFFSET -2.19251 6.46944 0.0
			CHANNELS 6 Xposition Yposition Zposition Zrotation Xrotation Yrotation 
			JOINT LowerLeg_R
			{
				OFFSET -39.0811 -0.00228153 -0.0401928
				CHANNELS 6 Xposition Yposition Zposition Zrotation Xrotation Yrotation 
				JOINT Foot_R
				{
					OFFSET -40.9854 0.0 0.0
					CHANNELS 6 Xposition Yposition Zposition Zrotation Xrotation Yrotation 
					JOINT Toes_R
					{
						OFFSET -11.7543 0.0 0.0
						CHANNELS 6 Xposition Yposition Zposition Zrotation Xrotation Yrotation 
						End Site
						{
							OFFSET 0.0 0.0 0.0
						}
					}
				}
			}
		}
	}
}
MOTION
Frames:	9
Frame Time:	0.0333333
0.000000 0.000000 0.000000 0.000000 0.000000 -0.000000 1.104080 79.011700 486.132000 -83.793200 0.727481 171.513000 15.735700 0.000005 -0.000001 93.159500 78.410000 -90.078800 8.984550 -0.406207 -0.000000 15.349700 1.463520 5.969480 16.377300 -0.000001 -0.000001 2.385590 -1.243640 1.161880 6.456720 -0.000001 -0.000000 -7.551050 -1.337270 -1.910980 12.994200 -0.242716 4.980390 -88.196600 -4.963030 -70.001600 5.348090 -0.000007 -0.000001 -64.628500 36.236100 2.405570 24.328600 0.000019 0.000005 0.655415 0.880393 -36.673800 22.291600 -0.000001 0.000005 -8.496540 5.553020 -8.846660 12.994500 -0.242716 -4.980390 90.036800 -0.111408 -71.696800 -5.348130 -0.000001 -0.000004 -38.149600 17.624800 -46.816500 -24.328900 0.000322 -0.000009 -18.412600 -10.442000 -61.431300 -22.291500 -0.000108 -0.000004 -1.060360 5.552360 -8.817060 -2.192480 -6.469440 -0.000000 -172.134000 -6.280610 -29.896500 39.081100 -0.000007 -0.000012 0.017183 0.002615 98.616700 40.985400 -0.000006 -0.000013 2.272290 -5.915510 -54.916200 11.754300 -0.000000 0.000003 -0.005379 -0.065092 -19.225500 -2.192510 6.469440 -0.000001 -171.596000 12.558700 152.602000 -39.081100 -0.002282 -0.040193 0.167116 -0.075419 65.297500 -40.985400 0.000008 0.000006 6.051870 -3.603790 -93.844200 -11.754300 -0.000006 -0.000006 -0.009226 -0.097763 -20.555400
0.000000 0.000000 0.000000 0.000000 0.000000 -0.000000 0.332319 80.198100 480.279000 -86.281400 2.568840 170.280000 15.735700 0.000005 -0.000001 96.904300 79.087300 -95.156600 8.984550 -0.406207 -0.000000 13.872800 2.686690 3.169870 16.377300 -0.000001 -0.000001 2.297700 -1.484820 1.443970 6.456720 -0.000001 -0.000000 -6.360940 -3.018520 -1.445790 12.994200 -0.242716 4.980390 -88.066100 -5.000030 -68.823100 5.348090 -0.000007 -0.000001 -64.341400 34.326900 8.794130 24.328600 0.000019 0.000005 -1.027090 -1.361000 -37.046500 22.291600 -0.000001 0.000005 -9.387460 5.546990 -8.562040 12.994500 -0.242716 -4.980390 90.411500 -1.254860 -71.842300 -5.348130 -0.000001 -0.000004 -35.782500 13.309600 -49.510200 -24.328900 0.000322 -0.000009 -19.934300 -9.277090 -66.032600 -22.291500 -0.000108 -0.000004 -0.589150 5.549640 -8.688800 -2.192480 -6.469440 -0.000000 -176.488000 -7.508890 -38.584400 39.081100 -0.000007 -0.000012 -0.005124 -0.000982 100.976000 40.985400 -0.000006 -0.000013 2.993570 -6.555530 -58.266500 11.754300 -0.000000 0.000003 -0.003121 -0.041974 -18.283800 -2.192510 6.469440 -0.000001 -176.124000 11.927800 157.979000 -39.081100 -0.002282 -0.040193 0.131956 -0.073072 60.424700 -40.985400 0.000008 0.000006 5.521010 -1.756150 -92.077400 -11.754300 -0.000006 -0.000006 -0.171561 -0.307943 -23.138700
0.000000 0.000000 0.000000 0.000000 0.000000 -0.000000 -0.561931 82.481900 473.882000 -88.958900 3.839150 169.038000 15.735700 0.000005 -0.000001 100.217000 79.779900 -99.854200 8.984550 -0.406207 -0.000000 12.356300 3.606940 0.335877 16.377300 -0.000001 -0.000001 2.410100 -1.899560 1.586990 6.456720 -0.000001 -0.000000 -5.108870 -4.681170 -0.602258 12.994200 -0.242716 4.980390 -87.808600 -5.413750 -67.923500 5.348090 -0.000007 -0.000001 -63.822000 32.184400 13.164000 24.328600 0.000019 0.000005 -2.444510 -3.316100 -36.430300 22.291600 -0.000001 0.000005 -9.627230 5.537450 -8.127990 12.994500 -0.242716 -4.980390 90.691000 -2.112500 -71.881900 -5.348130 -0.000001 -0.000004 -35.106100 10.565000 -49.685900 -24.328900 0.000322 -0.000009 -21.014700 -8.190820 -69.649700 -22.291500 -0.000108 -0.000004 -0.410492 5.548800 -8.649510 -2.192480 -6.469440 -0.000000 179.476000 -7.425760 -44.839300 39.081100 -0.000007 -0.000012 -0.001136 -0.000133 97.167200 40.985400 -0.000006 -0.000013 1.622330 -7.004530 -62.197900 11.754300 -0.000000 0.000003 -0.001867 -0.027046 -17.676500 -2.192510 6.469440 -0.000001 179.285000 10.739500 164.419000 -39.081100 -0.002282 -0.040193 0.037674 -0.026877 52.027600 -40.985400 0.000008 0.000006 4.797200 -0.303436 -84.993300 -11.754300 -0.000006 -0.000006 -2.370190 -2.228580 -28.547100
0.000000 0.000000 0.000000 0.000000 0.000000 -0.000000 -1.466300 85.320500 467.067000 -91.330200 4.134320 168.489000 15.735700 0.000005 -0.000001 101.991000 80.230800 -102.751000 8.984550 -0.406207 -0.000000 11.393600 4.003010 -1.919170 16.377300 -0.000001 -0.000001 2.814830 -2.171990 1.563300 6.456720 -0.000001 -0.000000 -4.132130 -5.874420 0.297950 12.994200 -0.242716 4.980390 -87.456000 -6.082900 -67.252600 5.348090 -0.000007 -0.000001 -63.918500 28.734000 15.856400 24.328600 0.000019 0.000005 -2.463250 -3.501060 -35.162500 22.291600 -0.000001 0.000005 -9.051060 5.531640 -7.866700 12.994500 -0.242716 -4.980390 90.789200 -2.386080 -71.692200 -5.348130 -0.000001 -0.000004 -34.932900 9.794760 -48.606300 -24.328900 0.000322 -0.000009 -22.001400 -7.462070 -72.180100 -22.291500 -0.000108 -0.000004 -0.411863 5.546030 -8.519870 -2.192480 -6.469440 -0.000000 176.527000 -6.016710 -47.458900 39.081100 -0.000007 -0.000012 0.013293 -0.000464 87.963900 40.985400 -0.000006 -0.000013 1.660430 -8.096410 -65.293200 11.754300 -0.000000 0.000003 -0.006128 -0.071998 -19.507100 -2.192510 6.469440 -0.000001 175.316000 9.739500 171.889000 -39.081100 -0.002282 -0.040193 0.030256 -0.029627 42.326600 -40.985400 0.000008 0.000006 3.810370 0.440839 -74.625900 -11.754300 -0.000006 -0.000006 -0.099850 -0.444185 -35.111000
0.000000 0.000000 0.000000 0.000000 0.000000 -0.000000 -2.331890 88.312300 460.379000 -92.729700 4.756760 167.246000 15.735700 0.000005 -0.000001 104.679000 80.792400 -106.255000 8.984550 -0.406207 -0.000000 10.137800 4.603960 -3.560620 16.377300 -0.000001 -0.000001 3.163410 -2.216050 1.474970 6.456720 -0.000001 -0.000000 -3.381050 -6.418180 0.979037 12.994200 -0.242716 4.980390 -87.091400 -6.808270 -66.801300 5.348090 -0.000007 -0.000001 -64.598000 24.756700 17.814500 24.328600 0.000019 0.000005 -2.855760 -4.111630 -34.827100 22.291600 -0.000001 0.000005 -8.809760 5.534950 -8.013830 12.994500 -0.242716 -4.980390 90.871600 -2.603100 -71.480900 -5.348130 -0.000001 -0.000004 -35.740100 10.704100 -46.939600 -24.328900 0.000322 -0.000009 -22.270300 -6.971020 -73.491000 -22.291500 -0.000108 -0.000004 -0.243894 5.544290 -8.439330 -2.192480 -6.469440 -0.000000 175.007000 -4.969160 -48.550600 39.081100 -0.000007 -0.000012 0.038440 -0.010573 74.612200 40.985400 -0.000006 -0.000013 1.422930 -9.393260 -67.503700 11.754300 -0.000000 0.000003 -0.005662 -0.067742 -19.333600 -2.192510 6.469440 -0.000001 172.758000 9.368950 176.338000 -39.081100 -0.002282 -0.040193 0.041573 -0.055790 34.456500 -40.985400 0.000008 0.000006 4.532240 1.562580 -59.210000 -11.754300 -0.000006 -0.000006 -0.207736 -0.657801 -44.825100
0.000000 0.000000 0.000000 0.000000 0.000000 -0.000000 -3.148220 90.687400 453.830000 -92.655300 5.263540 166.161000 15.735700 0.000005 -0.000001 106.912000 81.164800 -108.835000 8.984550 -0.406207 -0.000000 9.255960 5.087250 -4.257510 16.377300 -0.000001 -0.000001 3.279700 -1.880960 1.535400 6.456720 -0.000001 -0.000000 -3.262100 -6.492430 1.392300 12.994200 -0.242716 4.980390 -86.768800 -7.380850 -66.276200 5.348090 -0.000007 -0.000001 -65.575500 21.440300 19.247100 24.328600 0.000019 0.000005 -4.519270 -6.259330 -35.938100 22.291600 -0.000001 0.000005 -8.015150 5.539010 -8.196450 12.994500 -0.242716 -4.980390 90.876400 -2.630800 -71.567900 -5.348130 -0.000001 -0.000004 -37.650700 12.383400 -45.140700 -24.328900 0.000322 -0.000009 -21.689600 -6.746550 -73.543300 -22.291500 -0.000108 -0.000004 -0.260168 5.543030 -8.381370 -2.192480 -6.469440 -0.000000 175.605000 -4.318140 -47.363200 39.081100 -0.000007 -0.000012 0.050211 -0.030943 58.353000 40.985400 -0.000006 -0.000013 1.181440 -7.941850 -69.300100 11.754300 -0.000000 0.000003 -0.005312 -0.064461 -19.199800 -2.192510 6.469440 -0.000001 170.984000 11.038800 178.949000 -39.081100 -0.002282 -0.040193 0.073354 -0.124846 29.296800 -40.985400 0.000008 0.000006 2.881750 5.218820 -43.775400 -11.754300 -0.000006 -0.000006 -0.200851 -0.646515 -44.289100
0.000000 0.000000 0.000000 0.000000 0.000000 -0.000000 -3.738710 91.720900 446.930000 -91.354100 5.066810 166.586000 15.735700 0.000005 -0.000001 107.823000 80.998000 -109.504000 8.984550 -0.406207 -0.000000 9.488420 5.454060 -3.814320 16.377300 -0.000001 -0.000001 3.260730 -1.806860 1.489640 6.456720 -0.000001 -0.000000 -3.438420 -6.318420 1.620030 12.994200 -0.242716 4.980390 -86.669300 -7.594150 -66.232500 5.348090 -0.000007 -0.000001 -66.529200 17.920300 19.895500 24.328600 0.000019 0.000005 -5.773590 -7.604550 -37.381300 22.291600 -0.000001 0.000005 -6.841490 5.542890 -8.374290 12.994500 -0.242716 -4.980390 90.794200 -2.399410 -71.680200 -5.348130 -0.000001 -0.000004 -40.105500 14.264900 -42.949600 -24.328900 0.000322 -0.000009 -20.476700 -6.692590 -72.665400 -22.291500 -0.000108 -0.000004 -0.068208 5.544850 -8.463640 -2.192480 -6.469440 -0.000000 178.147000 -3.696440 -43.648600 39.081100 -0.000007 -0.000012 0.024309 -0.026768 42.240300 40.985400 -0.000006 -0.000013 -1.233630 -4.541180 -70.920500 11.754300 -0.000000 0.000003 -0.005364 -0.064954 -19.219900 -2.192510 6.469440 -0.000001 170.144000 11.495200 -178.024000 -39.081100 -0.002282 -0.040193 0.117741 -0.220383 27.440700 -40.985400 0.000008 0.000006 -1.680440 6.377970 -32.668600 -11.754300 -0.000006 -0.000006 -0.068959 -0.359849 -31.469200
0.000000 0.000000 0.000000 0.000000 0.000000 -0.000000 -4.249590 91.427400 439.672000 -89.855400 5.013190 167.819000 15.735700 0.000005 -0.000001 108.312000 80.542300 -109.652000 8.984550 -0.406207 -0.000000 10.301800 5.874380 -3.210300 16.377300 -0.000001 -0.000001 2.877990 -1.782330 1.455850 6.456720 -0.000001 -0.000000 -3.386710 -6.165290 1.784780 12.994200 -0.242716 4.980390 -86.816300 -7.299110 -66.356000 5.348090 -0.000007 -0.000001 -66.946000 14.291300 19.484800 24.328600 0.000019 0.000005 -6.083220 -7.544080 -39.067800 22.291600 -0.000001 0.000005 -5.405010 5.545970 -8.515430 12.994500 -0.242716 -4.980390 90.677700 -2.060910 -71.791900 -5.348130 -0.000001 -0.000004 -43.227900 16.349600 -40.195000 -24.328900 0.000322 -0.000009 -19.113200 -6.831310 -71.054100 -22.291500 -0.000108 -0.000004 0.620447 5.550310 -8.721720 -2.192480 -6.469440 -0.000000 -179.898000 -4.453760 -39.941000 39.081100 -0.000007 -0.000012 -0.005380 0.008965 30.969900 40.985400 -0.000006 -0.000013 -3.362040 -2.496170 -72.120800 11.754300 -0.000000 0.000003 -0.005134 -0.062764 -19.130600 -2.192510 6.469440 -0.000001 170.744000 7.680870 -175.053000 -39.081100 -0.002282 -0.040193 0.131580 -0.233962 28.734800 -40.985400 0.000008 0.000006 -3.608280 5.255080 -27.289500 -11.754300 -0.000006 -0.000006 -0.028489 -0.210452 -25.191300
0.000000 0.000000 0.000000 0.000000 0.000000 -0.000000 -4.954900 89.979200 432.199000 -89.316000 5.657100 168.688000 15.735700 0.000005 -0.000001 108.345000 80.239500 -109.746000 8.984550 -0.406207 -0.000000 10.883800 6.061300 -3.381870 16.377300 -0.000001 -0.000001 2.680960 -1.517110 1.265740 6.456720 -0.000001 -0.000000 -3.420690 -5.873430 2.227020 12.994200 -0.242716 4.980390 -87.091200 -6.709910 -66.496900 5.348090 -0.000007 -0.000001 -67.278900 12.399400 17.893200 24.328600 0.000019 0.000005 -6.441750 -7.553620 -40.659100 22.291600 -0.000001 0.000005 -3.747030 5.548330 -8.627730 12.994500 -0.242716 -4.980390 90.497600 -1.539600 -72.087800 -5.348130 -0.000001 -0.000004 -46.506500 18.831000 -37.144000 -24.328900 0.000322 -0.000009 -19.058500 -7.878320 -68.356400 -22.291500 -0.000108 -0.000004 0.911653 5.561380 -9.255990 -2.192480 -6.469440 -0.000000 179.128000 -6.726230 -39.365500 39.081100 -0.000007 -0.000012 0.105518 -0.185436 29.640900 40.985400 -0.000006 -0.000013 -0.960027 -3.637270 -73.282600 11.754300 -0.000000 0.000003 -0.005535 -0.066558 -19.285200 -2.192510 6.469440 -0.000001 171.611000 1.562530 -174.199000 -39.081100 -0.002282 -0.040193 0.114616 -0.157805 35.201700 -40.985400 0.000008 0.000006 -3.666040 4.413270 -30.792200 -11.754300 -0.000006 -0.000006 -0.027714 -0.206791 -25.039500
